# xmcd
#
# Track frame offsets:
#	150
#	21358
#	61249
#	80722
#	109568
#	134765
#	157119
#	177458
#	195345
#	219884
#	237998
#	263256
#	284910
#
# Disc length: 4018 seconds
#
# Revision: 1
# Processed by: cddbd v1.5.2PL0 Copyright (c) Steve Scherf et al.
# Submitted via: audiograbber 1.83.01
#
DISCID=bc0fb00d
DTITLE=Andy Timmons - Pawn Kings
DYEAR=1900
DGENRE=Rock
TTITLE0=Fried Chicken Skin
TTITLE1=When A Man Loves A Woman
TTITLE2=You Can Count On Me
TTITLE3=Little Wing
TTITLE4=Honky Tonk Blues
TTITLE5=Let's Go
TTITLE6=Blood Is Thicker Than Water
TTITLE7=Night Train
TTITLE8=I Believe In You
TTITLE9=Loosen Up
TTITLE10=Green Onions
TTITLE11=Way That I'm Livin' 
TTITLE12=Guess Who's Back In Town 
EXTD=
EXTT0=
EXTT1=
EXTT2=
EXTT3=
EXTT4=
EXTT5=
EXTT6=
EXTT7=
EXTT8=
EXTT9=
EXTT10=
EXTT11=
EXTT12=
PLAYORDER=
